# xmcd
#
# Track frame offsets: 
#        150
#        17509
#        32426
#        47493
#        67718
#        88139
#        99441
#        118522
#        132710
#        147948
#        165830
#        184119
#        200713
#        217845
#        236295
#        252137
#        266804
#        278328
#        294253
#        313206
#        323800
#        338196
#
# Disc length: 4759 seconds
#
# Revision: 0
# Processed by: cddbd v1.5.2PL0 Copyright (c) Steve Scherf et al.
# Submitted via: ExactAudioCopy v0.99pb4
#
DISCID=2f129516
DTITLE=Various Artist - Maximum Hit Music 2014 Vol. 1
DYEAR=2014
DGENRE=Top 40
TTITLE0=Pharrell Williams - Happy
TTITLE1=Klingande - Jubel
TTITLE2=FAUL and Wad Ad Vs. Pnau - Changes
TTITLE3=John Legend - All Of Me
TTITLE4=London Grammar - Strong
TTITLE5=Ellie Goulding - How Long Will I Love You
TTITLE6=Avicii - Hey Brother
TTITLE7=Dimitri Vegas and Like Mike Feat. Wolfpack and Katy B - Find Tomor
TTITLE7=row (Ocarina)
TTITLE8=Martin Garrix and Jay Hardway - Wizard
TTITLE9=Bastille - Things We Lost In The Fire
TTITLE10=One Direction - Story Of My Life
TTITLE11=Miley Cyrus - Wrecking Ball
TTITLE12=Katy Perry - Unconditionally
TTITLE13=Marco Borsato Met Jada Borsato Feat. Willem Frederiks and Lange
TTITLE13=Frans, Day Ewbank and John Ewbank - Samen Voor Altijd
TTITLE14=Stromae - Tous les mêmes
TTITLE15=Parra For Cuva Feat. Anna Naklab - Wicked Games
TTITLE16=Storm Queen - Look Right Through
TTITLE17=Cris Cab - Liar Liar
TTITLE18=Birdy - Light Me Up
TTITLE19=Marble Sounds - Leave A Light On
TTITLE20=Sam Smith - Money On My Mind
TTITLE21=Eminem Feat. Rihanna - The Monster
EXTD=
EXTT0=
EXTT1=
EXTT2=
EXTT3=
EXTT4=
EXTT5=
EXTT6=
EXTT7=
EXTT8=
EXTT9=
EXTT10=
EXTT11=
EXTT12=
EXTT13=
EXTT14=
EXTT15=
EXTT16=
EXTT17=
EXTT18=
EXTT19=
EXTT20=
EXTT21=
PLAYORDER=
